# xmcd
#
# Track frame offsets:
#	225
#	17692
#	39475
#	54105
#	70836
#	86336
#	124833
#	143934
#	168000
#
# Disc length: 2507 seconds
#
# Revision: 0
# Processed by: cddbd v1.5.2PL0 Copyright (c) Steve Scherf et al.
# Submitted via: dBpowerAMP V4.0
#
DISCID=6a09c809
DTITLE=Electric Flag - An American Music Band
DYEAR=2000
DGENRE=Blues
TTITLE0=It's Not the Spotlight
TTITLE1=I Was Robbed Last Night
TTITLE2=I Found Out
TTITLE3=Never Be Lonely Again
TTITLE4=Losing Game
TTITLE5=My Baby Wants to Test Me
TTITLE6=I Should Have Left Her
TTITLE7=You Don't Realize
TTITLE8=Groovin' Is Easy
EXTD=
EXTT0=
EXTT1=
EXTT2=
EXTT3=
EXTT4=
EXTT5=
EXTT6=
EXTT7=
EXTT8=
PLAYORDER=
